<svg width="52" height="56" viewBox="0 0 52 56" fill="none" xmlns="http://www.w3.org/2000/svg">
<rect width="52" height="56" rx="10" fill="#1A1A1A"/>
<path d="M27.125 27.625V36.25C27.125 36.5484 27.0065 36.8345 26.7955 37.0455C26.5845 37.2565 26.2984 37.375 26 37.375C25.7016 37.375 25.4155 37.2565 25.2045 37.0455C24.9935 36.8345 24.875 36.5484 24.875 36.25V27.625C24.875 27.3266 24.9935 27.0405 25.2045 26.8295C25.4155 26.6185 25.7016 26.5 26 26.5C26.2984 26.5 26.5845 26.6185 26.7955 26.8295C27.0065 27.0405 27.125 27.3266 27.125 27.625ZM32.75 34C32.4516 34 32.1655 34.1185 31.9545 34.3295C31.7435 34.5405 31.625 34.8266 31.625 35.125V36.25C31.625 36.5484 31.7435 36.8345 31.9545 37.0455C32.1655 37.2565 32.4516 37.375 32.75 37.375C33.0484 37.375 33.3345 37.2565 33.5455 37.0455C33.7565 36.8345 33.875 36.5484 33.875 36.25V35.125C33.875 34.8266 33.7565 34.5405 33.5455 34.3295C33.3345 34.1185 33.0484 34 32.75 34ZM35 30.25H33.875V19.75C33.875 19.4516 33.7565 19.1655 33.5455 18.9545C33.3345 18.7435 33.0484 18.625 32.75 18.625C32.4516 18.625 32.1655 18.7435 31.9545 18.9545C31.7435 19.1655 31.625 19.4516 31.625 19.75V30.25H30.5C30.2016 30.25 29.9155 30.3685 29.7045 30.5795C29.4935 30.7905 29.375 31.0766 29.375 31.375C29.375 31.6734 29.4935 31.9595 29.7045 32.1705C29.9155 32.3815 30.2016 32.5 30.5 32.5H35C35.2984 32.5 35.5845 32.3815 35.7955 32.1705C36.0065 31.9595 36.125 31.6734 36.125 31.375C36.125 31.0766 36.0065 30.7905 35.7955 30.5795C35.5845 30.3685 35.2984 30.25 35 30.25ZM19.25 31C18.9516 31 18.6655 31.1185 18.4545 31.3295C18.2435 31.5405 18.125 31.8266 18.125 32.125V36.25C18.125 36.5484 18.2435 36.8345 18.4545 37.0455C18.6655 37.2565 18.9516 37.375 19.25 37.375C19.5484 37.375 19.8345 37.2565 20.0455 37.0455C20.2565 36.8345 20.375 36.5484 20.375 36.25V32.125C20.375 31.8266 20.2565 31.5405 20.0455 31.3295C19.8345 31.1185 19.5484 31 19.25 31ZM21.5 27.25H20.375V19.75C20.375 19.4516 20.2565 19.1655 20.0455 18.9545C19.8345 18.7435 19.5484 18.625 19.25 18.625C18.9516 18.625 18.6655 18.7435 18.4545 18.9545C18.2435 19.1655 18.125 19.4516 18.125 19.75V27.25H17C16.7016 27.25 16.4155 27.3685 16.2045 27.5795C15.9935 27.7905 15.875 28.0766 15.875 28.375C15.875 28.6734 15.9935 28.9595 16.2045 29.1705C16.4155 29.3815 16.7016 29.5 17 29.5H21.5C21.7984 29.5 22.0845 29.3815 22.2955 29.1705C22.5065 28.9595 22.625 28.6734 22.625 28.375C22.625 28.0766 22.5065 27.7905 22.2955 27.5795C22.0845 27.3685 21.7984 27.25 21.5 27.25ZM28.25 22.75H27.125V19.75C27.125 19.4516 27.0065 19.1655 26.7955 18.9545C26.5845 18.7435 26.2984 18.625 26 18.625C25.7016 18.625 25.4155 18.7435 25.2045 18.9545C24.9935 19.1655 24.875 19.4516 24.875 19.75V22.75H23.75C23.4516 22.75 23.1655 22.8685 22.9545 23.0795C22.7435 23.2905 22.625 23.5766 22.625 23.875C22.625 24.1734 22.7435 24.4595 22.9545 24.6705C23.1655 24.8815 23.4516 25 23.75 25H28.25C28.5484 25 28.8345 24.8815 29.0455 24.6705C29.2565 24.4595 29.375 24.1734 29.375 23.875C29.375 23.5766 29.2565 23.2905 29.0455 23.0795C28.8345 22.8685 28.5484 22.75 28.25 22.75Z" fill="white"/>
</svg>
